<svg width="22" height="22" viewBox="0 0 22 22" fill="none" xmlns="http://www.w3.org/2000/svg">
<g clip-path="url(#clip0_185_1670)">
<path d="M18.9831 22C19.3711 21.9874 19.7525 21.8951 20.1034 21.7289C20.4543 21.5627 20.7673 21.3261 21.0229 21.0338C21.2785 20.7415 21.4712 20.3998 21.5891 20.0298C21.707 19.6599 21.7476 19.2696 21.7083 18.8833L19.4588 2.38333C19.3673 1.72451 19.0412 1.1208 18.5404 0.683013C18.0397 0.245221 17.3978 0.00271478 16.7327 0L5.26698 0C4.60184 0.00271478 3.95998 0.245221 3.45921 0.683013C2.95845 1.1208 2.63237 1.72451 2.54082 2.38333L0.291316 18.8833C0.243576 19.2712 0.278202 19.6647 0.392931 20.0382C0.507659 20.4117 0.699908 20.7568 0.957117 21.051C1.21433 21.3451 1.5307 21.5817 1.88558 21.7452C2.24046 21.9088 2.62585 21.9956 3.01657 22H18.9831ZM5.49982 4.58333C5.49982 4.34022 5.59639 4.10706 5.7683 3.93515C5.94021 3.76324 6.17337 3.66667 6.41648 3.66667C6.6596 3.66667 6.89276 3.76324 7.06466 3.93515C7.23657 4.10706 7.33315 4.34022 7.33315 4.58333V6.41667C7.33315 7.38913 7.71946 8.32176 8.40709 9.00939C9.09472 9.69703 10.0274 10.0833 10.9998 10.0833C11.9723 10.0833 12.9049 9.69703 13.5925 9.00939C14.2802 8.32176 14.6665 7.38913 14.6665 6.41667V4.58333C14.6665 4.34022 14.7631 4.10706 14.935 3.93515C15.1069 3.76324 15.34 3.66667 15.5832 3.66667C15.8263 3.66667 16.0594 3.76324 16.2313 3.93515C16.4032 4.10706 16.4998 4.34022 16.4998 4.58333V6.41667C16.4998 7.87536 15.9204 9.2743 14.8889 10.3058C13.8575 11.3372 12.4585 11.9167 10.9998 11.9167C9.54113 11.9167 8.14218 11.3372 7.11073 10.3058C6.07928 9.2743 5.49982 7.87536 5.49982 6.41667V4.58333Z" fill="white"/>
</g>
<defs>
<clipPath id="clip0_185_1670">
<rect width="22" height="22" fill="white"/>
</clipPath>
</defs>
</svg>
