<svg width="26" height="26" viewBox="0 0 26 26" fill="none" xmlns="http://www.w3.org/2000/svg">
    <path d="M3.89184 9.94099V5.80537L3.55872 5.82568V3.27849L6.77215 3.25818V5.76677H6.43903V8.19615L3.89184 9.94099Z" fill="#AB5832"/>
    <path d="M13.022 4.73889L3.79199 14.0136L3.86309 22.5875L22.0936 22.4148L22.12 13.2742L13.022 4.73889Z" fill="#FFF3E1"/>
    <path d="M3.44702 21.0824L4.08483 20.731V13.8085L3.49171 14.2046C3.48968 14.2046 3.55671 21.0824 3.44702 21.0824ZM21.775 14.1822V20.6883L22.4128 21.0397V14.4239L21.775 14.1822Z" fill="#5F4E47"/>
    <path d="M13.0849 5.73007L3.48926 14.7102V12.4454L13.095 3.34741L22.4124 12.9958V14.9073L13.0849 5.73007Z" fill="#BCAA93"/>
    <path d="M2.54923 12.0575L1.98657 13.0955L3.49579 13.0731C3.49579 13.0731 12.9106 3.91627 13.1138 3.90814C13.3595 3.89799 22.4088 13.2336 22.4088 13.2336L23.7474 13.2133L13.7049 2.39486L12.2302 2.29736L2.54923 12.0575Z" fill="#AB5832"/>
    <path d="M0.812949 12.8355C0.654511 13.0285 0.810918 13.13 0.938886 13.13C1.06686 13.13 2.54154 13.0874 2.54154 13.0874L12.7059 3.19721C12.7059 3.19721 12.9395 2.95752 13.1061 2.96565C13.2869 2.97377 13.5204 3.2033 13.5204 3.2033L23.7336 13.2153C23.7336 13.2153 24.8975 13.2194 25.0823 13.1727C25.2834 13.1239 25.1819 12.933 24.934 12.6669C24.7512 12.4699 14.4264 2.25674 14.2558 2.08002C13.7479 1.55596 13.5001 1.25127 13.0208 1.27159C12.5394 1.2919 12.255 1.64737 11.7736 2.09018C11.6314 2.22424 0.87998 12.7542 0.812949 12.8355Z" fill="#ED6C31"/>
    <path d="M18.9919 16.4187H21.0739V14.686C21.0739 14.6094 21.0588 14.5336 21.0295 14.4629C21.0002 14.3922 20.9573 14.3279 20.9032 14.2738C20.849 14.2196 20.7848 14.1767 20.714 14.1474C20.6433 14.1181 20.5675 14.103 20.4909 14.103H18.9919V16.4187ZM18.3662 16.4187V14.103H16.7412C16.6647 14.103 16.5889 14.1181 16.5182 14.1474C16.4474 14.1767 16.3832 14.2196 16.329 14.2738C16.2749 14.3279 16.232 14.3922 16.2027 14.4629C16.1734 14.5336 16.1583 14.6094 16.1583 14.686V16.4207H18.3662V16.4187ZM18.3662 17.0768H16.1583V18.7018C16.1583 18.8564 16.2197 19.0047 16.329 19.114C16.4384 19.2233 16.5866 19.2847 16.7412 19.2847H18.3662V17.0768ZM18.9919 17.0768V19.2847H20.4909C20.6455 19.2847 20.7938 19.2233 20.9032 19.114C21.0125 19.0047 21.0739 18.8564 21.0739 18.7018V17.0768H18.9919ZM7.46453 16.4187H9.54656V14.686C9.54656 14.6094 9.53148 14.5336 9.50219 14.4629C9.47289 14.3922 9.42995 14.3279 9.37581 14.2738C9.32168 14.2196 9.25742 14.1767 9.18669 14.1474C9.11596 14.1181 9.04015 14.103 8.96359 14.103H7.46453V16.4187ZM6.83687 16.4187V14.103H5.21187C5.13532 14.103 5.05951 14.1181 4.98878 14.1474C4.91805 14.1767 4.85379 14.2196 4.79965 14.2738C4.74552 14.3279 4.70258 14.3922 4.67328 14.4629C4.64398 14.5336 4.62891 14.6094 4.62891 14.686V16.4207H6.83687V16.4187ZM6.83687 17.0768H4.63094V18.7018C4.63094 18.8564 4.69236 19.0047 4.80169 19.114C4.91101 19.2233 5.05929 19.2847 5.21391 19.2847H6.83891V17.0768H6.83687ZM7.46453 17.0768V19.2847H8.96359C9.11821 19.2847 9.26649 19.2233 9.37581 19.114C9.48514 19.0047 9.54656 18.8564 9.54656 18.7018V17.0768H7.46453Z" fill="#A6CFD5"/>
    <path d="M10.2253 21.6795C10.2253 21.6795 10.1949 16.6542 10.2253 15.3846C10.2558 14.1171 11.4461 13.0203 12.8253 13.067C14.5316 13.1259 15.4091 14.0846 15.4721 15.3217C15.535 16.5587 15.535 21.7567 15.535 21.7567L10.2253 21.6795Z" fill="#D27857"/>
    <path d="M10.8614 21.9517C10.8614 21.9517 10.837 16.5973 10.8614 15.6061C10.8919 14.3772 11.8181 13.7312 12.8947 13.7922C14.148 13.8633 14.7675 14.5295 14.8163 15.4984C14.865 16.4653 14.865 21.9558 14.865 21.9558L10.8614 21.9517Z" fill="#AB5932"/>
    <path d="M14.2167 17.5866C14.2126 16.705 14.2045 15.927 14.1923 15.6894C14.1598 15.0495 13.7048 14.5519 12.8212 14.5214C12.1082 14.497 11.5212 15.0536 11.5049 15.7097C11.4989 15.9514 11.5009 16.7111 11.5049 17.5764L14.2167 17.5866ZM11.511 18.5758C11.5192 19.7559 11.5293 20.8427 11.5293 20.8427L14.2248 20.8508C14.2248 20.8508 14.2248 19.7681 14.2207 18.588L11.511 18.5758Z" fill="#D27857"/>
    <path d="M14.2252 18.0395C14.2151 18.3259 14.3308 18.5575 14.6701 18.5575C15.0093 18.5575 15.1332 18.3991 15.1576 18.0923C15.1779 17.8181 14.989 17.5744 14.6701 17.5947C14.3532 17.617 14.2333 17.8384 14.2252 18.0395Z" fill="#FFBA02"/>
    <path d="M16.1708 23.6255C16.1708 23.6255 18.3808 23.6479 19.9774 23.6012C21.574 23.5544 22.7297 23.6255 22.9674 23.3858C23.205 23.1482 23.201 21.123 22.094 20.5746C21.0763 20.0708 20.4182 20.5827 20.0688 20.6172C19.6077 20.664 19.0369 20.3776 18.6185 20.3694C16.8899 20.3329 16.2846 21.6918 16.2846 21.6918L16.1708 23.6255ZM2.95146 23.459C3.1363 23.6316 4.54802 23.6377 6.25224 23.6255C7.95646 23.6133 9.32755 23.6296 9.32755 23.6296L9.61193 21.9091L9.26661 21.6227C9.26661 21.6227 9.30521 20.7615 8.21849 20.4669C7.46693 20.2638 6.81286 20.599 6.18114 20.6091C5.54943 20.6213 4.96646 20.3349 4.26364 20.5015C3.60958 20.6558 3.09974 21.0824 2.89255 21.9436C2.74833 22.5408 2.78489 23.3026 2.95146 23.459Z" fill="#728037"/>
    <path d="M9.12402 25.4252L9.13824 23.6276H9.27027L9.26824 21.6248H16.3228L16.2984 23.6276H16.4528V25.3785C16.4507 25.3765 9.12402 25.4354 9.12402 25.4252Z" fill="#B0B0B0"/>
    <path d="M16.4508 24.639V25.3763L9.12207 25.4251L9.12816 24.6329L16.4508 24.639ZM9.26629 22.8474L16.3046 22.8494V23.6254H9.26629V22.8474Z" fill="#9B9B9B"/>
</svg>
