<svg width="37" height="37" viewBox="0 0 37 37" fill="none" xmlns="http://www.w3.org/2000/svg">
    <g clip-path="url(#clip0_401_3134)">
        <path d="M36.4572 33.6436H33.1635C32.9274 33.6436 32.7353 33.4515 32.7353 33.2154V27.8774C32.7353 27.6413 32.9274 27.4493 33.1635 27.4493H36.4572C36.757 27.4493 37 27.2063 37 26.9065C37 26.6066 36.757 26.3637 36.4572 26.3637H33.1635C32.5081 26.3637 31.9503 26.7831 31.7402 27.3671H30.3626L30.2678 27.2854C28.7393 25.9677 26.8704 25.1615 24.863 24.9539L24.2215 24.8875L21.3953 22.8818C20.6047 22.3209 19.5179 22.4396 18.8671 23.1579C18.2266 23.8651 18.1994 24.9149 18.8023 25.6543L20.945 28.2819H19.3478C19.0481 28.2819 18.805 28.5248 18.805 28.8247C18.805 29.1245 19.0481 29.3675 19.3478 29.3675H21.8302L22.1639 29.7766C22.2712 29.9081 22.4275 29.9764 22.5849 29.9764C22.7056 29.9764 22.8269 29.9364 22.9276 29.8542C23.1599 29.6648 23.1947 29.3229 23.0053 29.0905L19.6436 24.9681C19.3824 24.6478 19.3942 24.193 19.6717 23.8867C19.9537 23.5754 20.4245 23.524 20.767 23.767L23.7096 25.8553C23.7859 25.9094 23.8748 25.9429 23.9679 25.9525L24.7514 26.0336C26.537 26.2184 28.1994 26.9355 29.5591 28.1075L29.8066 28.3209C29.9051 28.4059 30.0309 28.4525 30.1609 28.4525H31.6497V32.5889H28.8364C28.8157 32.5889 28.7951 32.5902 28.7746 32.5925L21.27 33.4518C20.4356 33.5476 19.5913 33.3434 18.8925 32.8774L13.6294 29.3673H17.0347C17.3345 29.3673 17.5775 29.1244 17.5775 28.8245C17.5775 28.5247 17.3345 28.2817 17.0347 28.2817H2.26602C1.61511 28.2817 1.08557 27.7522 1.08557 27.1012V21.5709C1.08557 20.9201 1.61511 20.3904 2.26602 20.3904H31.963C32.6139 20.3904 33.1435 20.92 33.1435 21.5709V24.9096C33.1435 25.2094 33.3866 25.4524 33.6863 25.4524C33.9861 25.4524 34.2291 25.2094 34.2291 24.9096V21.5709C34.2291 20.3214 33.2126 19.3049 31.963 19.3049H19.4664C19.4954 19.2064 19.5154 19.1043 19.5234 18.9985L20.402 7.51181C20.9026 7.38922 21.2756 6.93805 21.2756 6.40026V5.43186C21.2756 4.93011 20.9508 4.5037 20.5008 4.34911L20.0628 2.96002C19.9328 2.54772 19.555 2.27075 19.1227 2.27075H10.8491C10.4168 2.27075 10.039 2.54772 9.90901 2.96002L9.48998 4.28912C8.88395 4.31807 8.39935 4.81873 8.39935 5.43186V6.40055C8.39935 6.93834 8.77235 7.38951 9.27287 7.51203L9.58588 11.6036H9.18762C8.88785 11.6036 8.64483 11.8466 8.64483 12.1464C8.64483 12.4462 8.88785 12.6892 9.18762 12.6892H14.0088L15.391 15.0017H3.89076L5.27305 12.6892H6.87448C7.17424 12.6892 7.41727 12.4462 7.41727 12.1464C7.41727 11.8466 7.17424 11.6036 6.87448 11.6036H5.20994C4.869 11.6036 4.54847 11.7854 4.37362 12.0781L2.46808 15.2661C2.29757 15.5515 2.28375 15.8998 2.43103 16.1977L3.96718 19.3052H2.26602C1.01653 19.3051 0 20.3216 0 21.5711V27.1014C0 28.351 1.01653 29.3675 2.26602 29.3675H11.673L18.2903 33.7807C19.0554 34.291 19.9542 34.5605 20.867 34.5605C21.0422 34.5605 21.2181 34.5505 21.3935 34.5304L28.8673 33.6746H31.7214C31.9163 34.2854 32.4889 34.7291 33.1634 34.7291H36.4571C36.7569 34.7291 36.9999 34.4861 36.9999 34.1863C36.9999 33.8865 36.757 33.6436 36.4572 33.6436ZM16.8507 16.1978C16.9981 15.8999 16.9843 15.5515 16.8136 15.266L15.7085 13.4172H18.8616L18.5947 16.9069H16.5002L16.8507 16.1978ZM15.3146 19.3051L15.9635 17.9924H18.5117L18.441 18.9159C18.4243 19.1341 18.2398 19.3051 18.0209 19.3051H15.3146ZM10.9223 3.35625H19.0495L19.3428 4.28629H10.6291L10.9223 3.35625ZM10.6746 11.6036L10.3642 7.54604H15.6517C15.9514 7.54604 16.1945 7.30309 16.1945 7.00326C16.1945 6.70342 15.9514 6.46047 15.6517 6.46047H9.54477C9.51169 6.46047 9.48485 6.43362 9.48485 6.40055V5.43186C9.48485 5.39879 9.51177 5.37194 9.54477 5.37194H20.1301C20.1632 5.37194 20.1901 5.39879 20.1901 5.43186V6.40055C20.1901 6.43362 20.1632 6.46047 20.1301 6.46047H17.965C17.6652 6.46047 17.4222 6.70342 17.4222 7.00326C17.4222 7.30309 17.6652 7.54604 17.965 7.54604H19.3108L18.9447 12.3316H15.0597L14.9081 12.078C14.7332 11.7854 14.4128 11.6036 14.0719 11.6036H10.6746ZM11.6977 16.0874L11.5264 16.7191C11.4963 16.8297 11.3954 16.9069 11.2809 16.9069H8.00073C7.88616 16.9069 7.78528 16.8298 7.75531 16.7192L7.58394 16.0874H11.6977ZM3.58745 16.0874H6.45929L6.70767 17.0033C6.86565 17.5858 7.39737 17.9925 8.0008 17.9925H11.281C11.8844 17.9925 12.4162 17.5858 12.5742 17.0033L12.8225 16.0874H15.6944L14.1037 19.3052H5.1781L3.58745 16.0874Z" fill="#787575"/>
    </g>
    <defs>
        <clipPath id="clip0_401_3134">
            <rect width="37" height="37" fill="white"/>
        </clipPath>
    </defs>
</svg>
