<svg width="37" height="37" viewBox="0 0 37 37" fill="none" xmlns="http://www.w3.org/2000/svg">
    <path d="M5.09443 24.5993L6.82158 21.8965L7.24795 17.4016C7.06006 17.4161 6.82881 17.3799 6.74932 17.192C5.52803 17.0475 4.94267 15.4288 5.80264 14.5399C5.44131 14.3881 5.55693 13.81 5.95439 13.8172H8.26689H9.47373C10.1241 13.81 10.7673 14.2002 11.0563 14.7856H12.5812C12.1403 14.1641 12.5378 13.2319 13.2894 13.1163L19.786 11.9672C19.7933 10.3774 20.6966 8.93931 22.0552 8.29614L22.0479 7.85532C21.2603 7.55903 20.7255 6.80747 20.7255 5.94028V4.90688H20.7038H19.3091C19.1429 4.90688 18.9911 4.79126 18.9478 4.63228C18.9044 4.47329 18.9694 4.29985 19.114 4.21313L20.7833 3.20864C21.1808 2.61606 21.8312 2.26919 22.5394 2.26919H23.5366C24.7073 2.26919 25.6612 3.2231 25.6612 4.40103V5.8897C25.6612 6.65571 25.2493 7.34946 24.6134 7.71802L24.6423 8.10103C25.5673 8.44067 26.2032 9.36567 26.2032 10.4135V16.5706C26.2032 17.3727 25.8636 18.0881 25.3216 18.594C25.6395 18.6084 26.1743 18.4856 26.2032 18.9553H26.2972C26.2899 18.9192 26.2827 18.8831 26.2827 18.8469V11.4903C26.2827 11.2952 26.355 11.1217 26.4634 10.9772C26.3478 10.8327 26.2827 10.6592 26.2827 10.4641V3.12192C26.2827 2.64497 26.6946 2.26196 27.1933 2.26196H35.3376C35.8435 2.26196 36.2481 2.64497 36.2481 3.12192V10.4713C36.2481 10.6665 36.1759 10.8399 36.0675 10.9844C36.1831 11.129 36.2481 11.3024 36.2481 11.4975V18.8469C36.2481 18.8975 36.2409 18.9409 36.2337 18.9842C37.2743 19.2372 37.1009 20.7836 36.0169 20.7909H33.3864C33.3431 20.7909 33.3069 20.827 33.3069 20.8704V24.4475C33.4731 24.6643 33.6177 24.8811 33.7622 25.1196H35.511C35.9663 25.1196 36.3421 25.4954 36.3421 25.9506V27.6055C36.3421 28.0608 35.9663 28.4366 35.511 28.4366H35.1353C35.3159 29.2243 35.4171 30.0409 35.4171 30.8719C35.4171 31.0815 35.2509 31.2477 35.0413 31.2477H31.5726C30.9944 35.8727 24.4616 35.8727 23.8835 31.2477H10.4999C9.98681 31.2477 9.50264 31.002 9.19912 30.5973L9.07627 30.5829C9.26416 32.8014 7.45752 34.7454 5.23174 34.7309C2.73135 34.767 0.809082 32.2522 1.50283 29.853L0.404396 29.7446C0.202049 29.7301 0.0430641 29.535 0.064743 29.3327C0.332127 26.7022 2.47119 24.7077 5.09443 24.5993ZM6.70596 15.0313L6.50361 14.9229C5.93271 15.2842 6.07724 16.2237 6.70596 16.4188V15.0313ZM7.89834 14.576H7.37803C7.42139 14.6483 7.45752 14.7206 7.45752 14.8073V16.6573C7.56592 16.6573 7.78271 16.6573 7.89834 16.6573V14.576ZM10.4638 15.2915C10.3337 14.8723 9.91455 14.5688 9.48096 14.576H8.6499V16.6573C8.83057 16.6573 9.30029 16.6573 9.48096 16.6573C10.1603 16.6573 10.695 15.9418 10.4638 15.2915ZM12.6245 15.5516H11.2731V15.6889H12.6245C12.704 15.6889 12.704 15.5444 12.6245 15.5516ZM12.6245 16.4405H11.0708C10.7528 17.0909 10.0446 17.4594 9.31474 17.4088V23.2334C9.26416 24.0284 9.87842 24.8522 10.2614 25.5026C10.6444 24.9389 11.4321 24.7077 12.0753 24.9028L13.2966 25.2569L17.0038 16.809C17.17 16.4333 17.5458 16.1875 17.9577 16.1875H19.8005V14.7061L13.5856 15.277C13.5134 15.2842 13.4339 15.277 13.3616 15.2698C13.6218 15.7901 13.2099 16.4549 12.6245 16.4405ZM11.3093 26.2325C11.8946 26.536 12.48 26.8395 13.0653 27.1502L13.4339 26.9696C13.6724 26.8467 13.9759 27.0418 13.9687 27.3092V27.6272L14.33 27.8006L14.6407 27.2008C14.7419 27.0274 14.6841 26.8178 14.5757 26.6588L13.3688 26.059L11.8585 25.6182C11.5911 25.5387 11.2948 25.5893 11.0636 25.7411L11.3093 26.2325ZM11.1575 26.9985L12.0681 28.5088H14.0843L13.4411 28.1981C13.3255 28.1403 13.246 28.0319 13.2315 27.909C13.1231 27.9596 12.9931 27.9596 12.8847 27.9018C12.3065 27.5983 11.7356 27.302 11.1575 26.9985ZM20.328 12.6465L13.4339 13.8678C13.0292 13.9401 13.1015 14.5616 13.5206 14.5327L21.4698 13.8028C21.5927 13.7956 21.7083 13.7305 21.7806 13.6366L23.1103 11.9672C23.4788 11.5336 23.2187 10.8038 22.6622 10.6881C22.3731 10.6231 22.0479 10.7243 21.8601 10.9483L20.552 12.5237C20.4942 12.5887 20.4147 12.6321 20.328 12.6465ZM21.4915 5.94751C21.4843 6.65571 22.0913 7.26274 22.7923 7.24829H23.3487V5.05864C23.3487 4.97192 23.2837 4.89966 23.197 4.89966H22.2864C22.2503 4.92134 21.5421 4.90688 21.4915 4.91411V5.94751ZM22.814 7.99985V8.03599C22.879 8.02153 22.9368 8.00708 23.0019 7.99985H22.814ZM24.9241 5.88247V4.3938C24.9241 3.63501 24.3099 3.01353 23.5511 3.01353H22.5538C22.0769 3.01353 21.636 3.25923 21.3831 3.67114C21.3542 3.72173 21.3108 3.76509 21.253 3.79399L20.6677 4.1481C21.0146 4.15532 21.8312 4.177 22.1853 4.1481H23.1825C23.6812 4.1481 24.0858 4.55278 24.0858 5.05864V7.13989C24.6062 6.93032 24.9241 6.43169 24.9241 5.88247ZM25.4733 16.5633V10.4063C25.4372 8.29614 22.5972 8.41177 21.4915 9.63306C21.1591 9.96548 20.8989 10.3774 20.7544 10.8254C20.7183 10.9627 20.7183 11.1362 20.6243 11.2518L21.2819 10.4641C22.6261 8.96099 24.9169 10.8038 23.6956 12.4297C23.6161 12.5165 22.2503 14.2797 22.1925 14.2725C21.8384 14.6266 21.0001 14.5688 20.5448 14.6411V16.5706C20.5448 16.7801 20.3786 16.9463 20.169 16.9463H17.9505C17.8349 16.9463 17.7337 17.0114 17.6831 17.1125L13.9903 25.5315C14.0554 25.5604 14.6118 25.8422 14.6913 25.8784L18.3841 19.1793C18.5864 18.818 18.9694 18.594 19.3813 18.594H19.656H23.4499C24.57 18.5868 25.4733 17.6834 25.4733 16.5633ZM15.3128 27.5477L14.8358 28.4727C14.8286 28.4872 14.8142 28.5016 14.8069 28.5088H16.469L19.6487 24.1368V20.7909C19.0995 20.7764 18.637 20.9354 18.7021 20.1694L15.2839 26.3698C15.4935 26.7311 15.5079 27.1864 15.3128 27.5477ZM25.4733 19.3383H19.721C19.4392 19.454 19.4392 19.7719 19.4464 20.0393C20.4942 20.0321 24.4399 20.0393 25.4661 20.0393V19.3383H25.4733ZM35.4966 3.12192C35.4966 3.07134 35.4315 3.01353 35.3376 3.01353H27.2222C27.1282 3.01353 27.0632 3.07134 27.0632 3.12192V10.4713C27.0632 10.5219 27.1282 10.5797 27.2222 10.5797H35.3376C35.4315 10.5797 35.4966 10.5219 35.4966 10.4713V3.12192ZM35.4966 11.4903C35.4966 11.4397 35.4315 11.3819 35.3376 11.3819H27.2222C27.1282 11.3819 27.0632 11.4397 27.0632 11.4903V18.8397C27.0632 18.8903 27.1282 18.9481 27.2222 18.9481H35.3376C35.4315 18.9481 35.4966 18.8903 35.4966 18.8397V11.4903ZM33.3864 20.0393H36.0169C36.2337 20.0465 36.2409 19.6997 36.0169 19.7069H26.2249V20.0393H31.4858C31.9483 20.0393 32.3169 20.4151 32.3169 20.8704V23.284C32.3964 23.3635 32.4759 23.4502 32.5481 23.5297V20.8631C32.5554 20.4151 32.9239 20.0393 33.3864 20.0393ZM28.5591 20.7909C29.6503 21.2172 30.662 21.8243 31.5653 22.5975V20.8704C31.5653 20.827 31.5292 20.7909 31.4858 20.7909H28.5591ZM34.8245 27.3309C34.8679 27.4465 34.904 27.5694 34.9401 27.685H35.511C35.5544 27.685 35.5905 27.6489 35.5905 27.6055V25.9506C35.5905 25.9073 35.5544 25.8711 35.511 25.8711H34.1958C34.4343 26.3409 34.6511 26.8251 34.8245 27.3309ZM27.728 33.9866C29.3179 33.9866 30.6331 32.787 30.821 31.2477H29.1228C28.747 32.6569 26.7163 32.6569 26.3405 31.2477H24.6423C24.8302 32.787 26.1454 33.9866 27.728 33.9866ZM28.3062 31.2477H27.1499C27.3956 31.6668 28.0677 31.6596 28.3062 31.2477ZM20.4798 30.4961C24.4688 30.4961 29.036 30.4961 33.0106 30.4961C32.8228 26.76 29.4624 24.0067 25.7407 24.3247C22.8429 24.3247 20.4798 26.6877 20.4798 29.5856V30.4961ZM9.69053 29.9542C9.82783 30.2793 10.1603 30.4961 10.5071 30.4961H19.7282C19.4103 26.3842 22.337 23.3057 26.4778 23.5731C30.3729 23.5731 33.5599 26.6444 33.755 30.4961H34.6583C34.8317 30.4961 34.1235 27.6055 34.0224 27.3454C33.6321 26.2975 33.0612 25.3147 32.353 24.4547C30.4958 22.1856 27.6269 20.8053 24.6929 20.7909H20.4003V24.2596C20.4003 24.3391 20.3786 24.4186 20.328 24.4836L16.9677 29.1086C16.8954 29.2098 16.787 29.2604 16.6642 29.2604H11.8513C11.7212 29.2604 11.5983 29.1881 11.5261 29.0797L9.03291 24.91C8.72939 24.4042 8.56318 23.826 8.56318 23.2334V17.4088H7.99951L7.55869 22.0627C7.55146 22.1206 7.52978 22.1784 7.50088 22.229L5.96885 24.6354C6.47471 24.686 6.98057 24.751 7.45752 24.9389C7.55146 24.975 7.63096 25.0545 7.67432 25.1485L9.69053 29.9542ZM5.23896 33.9866C7.07451 34.001 8.55596 32.3461 8.32471 30.5178L6.57588 30.3516C6.96611 31.2622 6.229 32.3461 5.23896 32.3245C4.12607 32.3606 3.40342 31.0165 4.0249 30.1059L2.27607 29.9397C1.61123 31.8836 3.17217 34.0227 5.23896 33.9866ZM5.92549 30.8719C5.92549 30.5901 5.75928 30.3516 5.5208 30.2432L5.07998 30.1999C4.77646 30.2721 4.54521 30.5467 4.54521 30.8719C4.55967 31.7825 5.91103 31.7825 5.92549 30.8719ZM1.90029 29.1448C1.95088 29.1231 2.00869 29.1159 2.06651 29.1159L8.67158 29.7518C8.71494 29.759 8.7583 29.7735 8.80166 29.7879C8.70771 29.5567 7.13955 25.8567 7.03115 25.5821C4.26338 24.7438 1.43056 26.1313 0.874123 29.0436L1.90029 29.1448ZM32.5265 9.65474C32.4831 9.82095 32.3313 9.9438 32.1651 9.9438H30.4163C30.2429 9.9438 30.0911 9.82817 30.055 9.65474L29.0144 5.41274C28.9493 5.18149 29.1444 4.94302 29.3757 4.95024H30.6548L30.5319 4.41548H29.9032C29.4118 4.41548 29.4118 3.66392 29.9032 3.66392H30.8354C31.0089 3.66392 31.1606 3.78677 31.204 3.95298L31.4353 4.94302H33.2058C33.3214 4.94302 33.4298 4.9936 33.502 5.08755C33.5743 5.18149 33.596 5.29712 33.5743 5.40552L32.5265 9.65474ZM29.8526 5.69458L30.7126 9.18501H31.8688L32.7216 5.69458H29.8526ZM32.895 17.8569H29.6142C28.6675 17.8569 27.8942 16.9247 27.8942 15.7829C27.8942 15.5227 28.1399 15.3709 28.3784 15.4071C28.3495 15.0458 28.4362 14.6338 28.7108 14.3809L27.822 12.4875C27.7353 12.2997 27.8147 12.0756 28.0026 11.9889C28.1905 11.9022 28.4145 11.9817 28.5013 12.1696L29.3685 14.0196C29.7153 13.9329 30.2284 13.9112 30.4524 13.745C30.6187 13.6583 30.8282 13.5426 31.1679 13.6221C31.6159 13.745 31.522 13.8823 31.9628 14.0774C32.3097 14.2508 32.4687 14.3231 32.6349 14.287C32.736 14.2653 32.7866 14.2219 32.8661 14.1641C33.6827 13.492 34.2897 14.7567 34.2392 15.4071C34.4343 15.4215 34.5933 15.5805 34.5933 15.7756C34.6149 16.9247 33.8417 17.8569 32.895 17.8569ZM33.5093 15.3782C33.4948 15.1036 33.4009 14.8723 33.3358 14.7711C32.895 15.1903 32.1651 15.0747 31.6376 14.7495C31.269 14.5833 31.2112 14.4532 31.0161 14.352C30.9511 14.3375 30.9511 14.3375 30.8138 14.4098C30.6765 14.4965 30.2501 14.6627 29.8671 14.6917C29.4624 14.7278 29.0505 14.8868 29.1444 15.4071H33.5093C33.5093 15.3999 33.5093 15.3854 33.5093 15.3782ZM28.8192 16.1586H28.6892C28.8048 16.7079 29.1806 17.1053 29.6142 17.1053H32.895C33.3358 17.1053 33.7044 16.7079 33.82 16.1586H28.8192Z" fill="white"/>
</svg>
